<svg width="80" height="81" viewBox="0 0 80 81" fill="none" xmlns="http://www.w3.org/2000/svg">
<rect y="0.625" width="80" height="80" rx="40" fill="#0B0A2F"/>
<path opacity="0.4" d="M56.6667 33.6417V36.475C56.6667 37.7583 55.3 38.525 54.1667 37.925C51.7167 36.6083 48.7667 36.0917 45.6667 36.7417C43.6667 37.1583 41.8167 38.0917 40.3 39.375C39.4333 40.0917 38.6667 40.9417 38.0167 41.875C37.1167 43.1917 36.45 44.6917 36.1167 46.2917C35.4667 49.3917 35.9833 52.3417 37.3 54.7917C37.9 55.925 37.1333 57.2917 35.85 57.2917H33.0167C27.6667 57.2917 23.3333 52.9583 23.3333 47.6083V33.6417C23.3333 28.2917 27.6667 23.9583 33.0167 23.9583H46.9833C52.3333 23.9583 56.6667 28.2917 56.6667 33.6417Z" fill="white"/>
<path d="M40.3 39.375C39.4333 40.0917 38.6667 40.9417 38.0167 41.875H23.3333V39.375H40.3Z" fill="white"/>
<path d="M30 35.625C29.3167 35.625 28.75 35.0583 28.75 34.375V31.0417C28.75 30.3583 29.3167 29.7917 30 29.7917C30.6833 29.7917 31.25 30.3583 31.25 31.0417V34.375C31.25 35.0583 30.6833 35.625 30 35.625Z" fill="white"/>
<path d="M36.6667 35.625C35.9833 35.625 35.4167 35.0583 35.4167 34.375V31.0417C35.4167 30.3583 35.9833 29.7917 36.6667 29.7917C37.35 29.7917 37.9167 30.3583 37.9167 31.0417V34.375C37.9167 35.0583 37.35 35.625 36.6667 35.625Z" fill="white"/>
<path d="M30 51.875C29.3167 51.875 28.75 51.3083 28.75 50.625V47.2917C28.75 46.6083 29.3167 46.0417 30 46.0417C30.6833 46.0417 31.25 46.6083 31.25 47.2917V50.625C31.25 51.3083 30.6833 51.875 30 51.875Z" fill="white"/>
<path d="M50 33.9583H43.3333C42.65 33.9583 42.0833 33.3917 42.0833 32.7083C42.0833 32.025 42.65 31.4583 43.3333 31.4583H50C50.6833 31.4583 51.25 32.025 51.25 32.7083C51.25 33.3917 50.6833 33.9583 50 33.9583Z" fill="white"/>
<path d="M48.3333 38.9583C42.8167 38.9583 38.3333 43.4417 38.3333 48.9583C38.3333 54.475 42.8167 58.9583 48.3333 58.9583C53.85 58.9583 58.3333 54.475 58.3333 48.9583C58.3333 43.4417 53.85 38.9583 48.3333 38.9583ZM53.2167 50.9583C52.95 51.6083 52.5667 52.1917 52.0667 52.6917C51.0667 53.6917 49.75 54.2417 48.3333 54.2417C47.2 54.2417 46.1334 53.875 45.2334 53.2083V53.4417C45.2334 53.9583 44.8167 54.3917 44.2833 54.3917C43.7667 54.3917 43.3333 53.975 43.3333 53.4417V51.0417C43.3333 50.525 43.75 50.0917 44.2833 50.0917H46.6834C47.2 50.0917 47.6333 50.5083 47.6333 51.0417C47.6333 51.525 47.2833 51.8917 46.8167 51.9583C48.0833 52.575 49.7 52.375 50.7167 51.3583C51.0333 51.0417 51.2833 50.6583 51.45 50.2417C51.65 49.7583 52.2 49.525 52.6833 49.725C53.1833 49.9083 53.4167 50.475 53.2167 50.9583ZM53.3333 46.8917C53.3333 47.4083 52.9167 47.8417 52.3833 47.8417H49.9833C49.4667 47.8417 49.0334 47.425 49.0334 46.8917C49.0334 46.4083 49.3833 46.0417 49.85 45.975C48.5833 45.3583 46.9667 45.5583 45.9333 46.575C45.65 46.8583 45.4333 47.175 45.2667 47.525C45.1 47.875 44.7667 48.075 44.4167 48.075C44.2833 48.075 44.15 48.0417 44.0167 47.9917C43.55 47.775 43.3334 47.2083 43.5667 46.725C43.8334 46.175 44.1834 45.675 44.6 45.2417C45.6 44.2417 46.9167 43.6917 48.3333 43.6917C49.4667 43.6917 50.5333 44.0583 51.4333 44.725V44.5083C51.4333 43.9917 51.85 43.5583 52.3833 43.5583C52.9167 43.5583 53.3333 43.9583 53.3333 44.4917V46.8917Z" fill="white"/>
</svg>
