<svg width="80" height="81" viewBox="0 0 80 81" fill="none" xmlns="http://www.w3.org/2000/svg">
<rect y="0.625" width="80" height="80" rx="40" fill="#0B0A2F"/>
<path opacity="0.6" d="M36.85 27.2917C36.7166 27.7917 36.6667 28.3417 36.6667 28.9583V33.9583H28.3333V30.625C28.3333 28.7917 29.8333 27.2917 31.6667 27.2917H36.85Z" fill="white"/>
<path d="M36.6667 52.2917V33.9583H28.3333C25 33.9583 23.3333 35.625 23.3333 38.9583V52.2917C23.3333 55.625 25 57.2917 28.3333 57.2917H41.6667C38.3333 57.2917 36.6667 55.625 36.6667 52.2917ZM31.25 48.9583C31.25 49.6417 30.6833 50.2083 30 50.2083C29.3167 50.2083 28.75 49.6417 28.75 48.9583V42.2917C28.75 41.6083 29.3167 41.0417 30 41.0417C30.6833 41.0417 31.25 41.6083 31.25 42.2917V48.9583Z" fill="white"/>
<path opacity="0.4" d="M43.3333 57.2917H41.6667C38.3333 57.2917 36.6667 55.625 36.6667 52.2917V28.9583C36.6667 25.625 38.3333 23.9583 41.6667 23.9583H51.6667C55 23.9583 56.6667 25.625 56.6667 28.9583V52.2917C56.6667 55.625 55 57.2917 51.6667 57.2917H50" fill="white"/>
<path d="M50 50.625V57.2917H43.3333V50.625C43.3333 49.7083 44.0833 48.9583 45 48.9583H48.3333C49.25 48.9583 50 49.7083 50 50.625Z" fill="white"/>
<path d="M43.3333 43.5417C42.65 43.5417 42.0833 42.975 42.0833 42.2917V33.9583C42.0833 33.275 42.65 32.7083 43.3333 32.7083C44.0167 32.7083 44.5833 33.275 44.5833 33.9583V42.2917C44.5833 42.975 44.0167 43.5417 43.3333 43.5417Z" fill="white"/>
<path d="M50 43.5417C49.3167 43.5417 48.75 42.975 48.75 42.2917V33.9583C48.75 33.275 49.3167 32.7083 50 32.7083C50.6833 32.7083 51.25 33.275 51.25 33.9583V42.2917C51.25 42.975 50.6833 43.5417 50 43.5417Z" fill="white"/>
</svg>
