<svg width="31" height="30" viewBox="0 0 31 30" fill="none" xmlns="http://www.w3.org/2000/svg">
<path d="M15.3334 27.5C22.2369 27.5 27.8334 21.9036 27.8334 15C27.8334 8.09644 22.2369 2.5 15.3334 2.5C8.42981 2.5 2.83337 8.09644 2.83337 15C2.83337 21.9036 8.42981 27.5 15.3334 27.5Z" fill="#0B0A2F"/>
<path d="M13.5584 19.475C13.3084 19.475 13.0709 19.375 12.8959 19.2L9.35838 15.6625C8.99588 15.3 8.99588 14.7 9.35838 14.3375C9.72088 13.975 10.3209 13.975 10.6834 14.3375L13.5584 17.2125L19.9834 10.7875C20.3459 10.425 20.9459 10.425 21.3084 10.7875C21.6709 11.15 21.6709 11.75 21.3084 12.1125L14.2209 19.2C14.0459 19.375 13.8084 19.475 13.5584 19.475Z" fill="white"/>
</svg>
