<svg width="50" height="51" viewBox="0 0 50 51" fill="none" xmlns="http://www.w3.org/2000/svg">
<g clip-path="url(#clip0_1_575)">
<rect width="50" height="50" transform="translate(0 0.5)" fill="white"/>
<path d="M45.4674 0.5H4.53262C2.0293 0.5 0 2.5293 0 5.03262V45.9674C0 48.4707 2.0293 50.5 4.53262 50.5H45.4674C47.9707 50.5 50 48.4707 50 45.9674V5.03262C50 2.5293 47.9707 0.5 45.4674 0.5Z" fill="#DC395F"/>
<path d="M16.7099 16.2315C18.3721 16.2315 19.7644 14.9287 19.7644 13.2213C19.7644 11.5151 18.3721 10.2125 16.7099 10.2125C15.0478 10.2125 13.6558 11.5151 13.6558 13.2213C13.6558 14.9285 15.0478 16.2315 16.7099 16.2315ZM10.3767 32.3487C10.1973 33.1123 10.1072 33.9369 10.1072 34.6096C10.1072 37.2602 11.5445 39.0198 14.599 39.0198C17.1322 39.0198 19.1859 37.5155 20.6646 35.0864L19.7617 38.71H24.792L27.667 27.1789C28.3857 24.2594 29.7781 22.744 31.8894 22.744C33.5513 22.744 34.5844 23.7776 34.5844 25.4838C34.5844 25.9781 34.5394 26.5166 34.3597 27.1008L32.8773 32.401C32.6527 33.1647 32.5633 33.9287 32.5633 34.6469C32.5633 37.1631 34.0451 39.0035 37.1445 39.0035C39.7947 39.0035 41.9056 37.2975 43.0736 33.2098L41.0974 32.4469C40.1092 35.1854 39.2556 35.6805 38.5818 35.6805C37.908 35.6805 37.5486 35.2317 37.5486 34.3338C37.5486 33.9295 37.6388 33.4809 37.7732 32.9406L39.2109 27.777C39.5701 26.5645 39.7051 25.4893 39.7051 24.5014C39.7051 20.6385 37.3691 18.6225 34.5394 18.6225C31.8894 18.6225 29.1941 21.0129 27.8469 23.5287L28.8347 19.0131H21.1543L20.0762 22.9905H23.6697L21.4568 31.8498C19.7191 35.7127 16.5271 35.7754 16.1265 35.6858C15.4687 35.5373 15.048 35.2875 15.048 34.4328C15.048 33.9397 15.1379 33.2313 15.3625 32.3772L18.7316 19.0131H10.1973L9.11913 22.9905H12.6674L10.3767 32.3487Z" fill="white"/>
</g>
<defs>
<clipPath id="clip0_1_575">
<rect width="50" height="50" transform="translate(0 0.5)"/>
</clipPath>
</defs>
</svg>
