<svg width="50" height="51" viewBox="0 0 50 51" fill="none" xmlns="http://www.w3.org/2000/svg">
<path d="M45.1172 0.5H4.88281C2.18611 0.5 0 2.68611 0 5.38281V45.6172C0 48.3139 2.18611 50.5 4.88281 50.5H45.1172C47.8139 50.5 50 48.3139 50 45.6172V5.38281C50 2.68611 47.8139 0.5 45.1172 0.5Z" fill="url(#paint0_linear_1_567)"/>
<path d="M41.1562 7H30.5938C29.2993 7 28.25 8.04933 28.25 9.34375V26.5312C28.25 27.8257 29.2993 28.875 30.5938 28.875H41.1562C42.4507 28.875 43.5 27.8257 43.5 26.5312V9.34375C43.5 8.04933 42.4507 7 41.1562 7Z" fill="white"/>
<path d="M19.4063 7H8.84376C7.54934 7 6.50001 8.04933 6.50001 9.34375V39.0312C6.50001 40.3257 7.54934 41.375 8.84376 41.375H19.4063C20.7007 41.375 21.75 40.3257 21.75 39.0312V9.34375C21.75 8.04933 20.7007 7 19.4063 7Z" fill="white"/>
<defs>
<linearGradient id="paint0_linear_1_567" x1="2500" y1="0.5" x2="2500" y2="5000.5" gradientUnits="userSpaceOnUse">
<stop stop-color="#0091E6"/>
<stop offset="1" stop-color="#0079BF"/>
</linearGradient>
</defs>
</svg>
