<svg width="748" height="818" viewBox="0 0 748 818" fill="none" xmlns="http://www.w3.org/2000/svg">
<g filter="url(#filter0_f_1_10)">
<ellipse cx="424.293" cy="253.661" rx="183.5" ry="152.334" transform="rotate(35.9359 424.293 253.661)" fill="#EDD8EF"/>
</g>
<g filter="url(#filter1_f_1_10)">
<ellipse cx="304.293" cy="503.661" rx="183.5" ry="152.334" transform="rotate(35.9359 304.293 503.661)" fill="#DAD8EF"/>
</g>
<mask id="path-3-inside-1_1_10" fill="white">
<path d="M75 215.5C75 187.886 97.3858 165.5 125 165.5H264C291.614 165.5 314 187.886 314 215.5V395.5C314 423.114 291.614 445.5 264 445.5H125C97.3858 445.5 75 423.114 75 395.5V215.5Z"/>
</mask>
<path d="M75 215.5C75 187.886 97.3858 165.5 125 165.5H264C291.614 165.5 314 187.886 314 215.5V395.5C314 423.114 291.614 445.5 264 445.5H125C97.3858 445.5 75 423.114 75 395.5V215.5Z" fill="white"/>
<path d="M74 215.5C74 187.333 96.8335 164.5 125 164.5H269C297.167 164.5 320 187.333 320 215.5H308C308 188.438 288.301 166.5 264 166.5H125C97.938 166.5 76 188.438 76 215.5H74ZM320 395.5C320 426.428 294.928 451.5 264 451.5H125C96.8335 451.5 74 428.667 74 400.5L76 395.5C76 419.801 97.938 439.5 125 439.5H264C288.301 439.5 308 419.801 308 395.5H320ZM125 451.5C96.8335 451.5 74 428.667 74 400.5V215.5C74 187.333 96.8335 164.5 125 164.5V166.5C97.938 166.5 76 188.438 76 215.5V395.5C76 419.801 97.938 439.5 125 439.5V451.5ZM269 164.5C297.167 164.5 320 187.333 320 215.5V395.5C320 426.428 294.928 451.5 264 451.5V439.5C288.301 439.5 308 419.801 308 395.5V215.5C308 188.438 288.301 166.5 264 166.5L269 164.5Z" fill="#0B0A2F" mask="url(#path-3-inside-1_1_10)"/>
<mask id="path-5-inside-2_1_10" fill="white">
<path d="M241 120C241 92.3858 263.386 70 291 70H430C457.614 70 480 92.3858 480 120V300C480 327.614 457.614 350 430 350H291C263.386 350 241 327.614 241 300V120Z"/>
</mask>
<path d="M241 120C241 92.3858 263.386 70 291 70H430C457.614 70 480 92.3858 480 120V300C480 327.614 457.614 350 430 350H291C263.386 350 241 327.614 241 300V120Z" fill="white"/>
<path d="M240 120C240 91.8335 262.833 69 291 69H435C463.167 69 486 91.8335 486 120H474C474 92.938 454.301 71 430 71H291C263.938 71 242 92.938 242 120H240ZM486 300C486 330.928 460.928 356 430 356H291C262.833 356 240 333.167 240 305L242 300C242 324.301 263.938 344 291 344H430C454.301 344 474 324.301 474 300H486ZM291 356C262.833 356 240 333.167 240 305V120C240 91.8335 262.833 69 291 69V71C263.938 71 242 92.938 242 120V300C242 324.301 263.938 344 291 344V356ZM435 69C463.167 69 486 91.8335 486 120V300C486 330.928 460.928 356 430 356V344C454.301 344 474 324.301 474 300V120C474 92.938 454.301 71 430 71L435 69Z" fill="#0B0A2F" mask="url(#path-5-inside-2_1_10)"/>
<mask id="path-7-inside-3_1_10" fill="white">
<path d="M241 430.25C241 402.636 263.386 380.25 291 380.25H430C457.614 380.25 480 402.636 480 430.25V610.25C480 637.864 457.614 660.25 430 660.25H291C263.386 660.25 241 637.864 241 610.25V430.25Z"/>
</mask>
<path d="M241 430.25C241 402.636 263.386 380.25 291 380.25H430C457.614 380.25 480 402.636 480 430.25V610.25C480 637.864 457.614 660.25 430 660.25H291C263.386 660.25 241 637.864 241 610.25V430.25Z" fill="white"/>
<path d="M240 430.25C240 402.083 262.833 379.25 291 379.25H435C463.167 379.25 486 402.083 486 430.25H474C474 403.188 454.301 381.25 430 381.25H291C263.938 381.25 242 403.188 242 430.25H240ZM486 610.25C486 641.178 460.928 666.25 430 666.25H291C262.833 666.25 240 643.417 240 615.25L242 610.25C242 634.551 263.938 654.25 291 654.25H430C454.301 654.25 474 634.551 474 610.25H486ZM291 666.25C262.833 666.25 240 643.417 240 615.25V430.25C240 402.083 262.833 379.25 291 379.25V381.25C263.938 381.25 242 403.188 242 430.25V610.25C242 634.551 263.938 654.25 291 654.25V666.25ZM435 379.25C463.167 379.25 486 402.083 486 430.25V610.25C486 641.178 460.928 666.25 430 666.25V654.25C454.301 654.25 474 634.551 474 610.25V430.25C474 403.188 454.301 381.25 430 381.25L435 379.25Z" fill="#0B0A2F" mask="url(#path-7-inside-3_1_10)"/>
<mask id="path-9-inside-4_1_10" fill="white">
<path d="M341 309C341 281.386 363.386 259 391 259H530C557.614 259 580 281.386 580 309V489C580 516.614 557.614 539 530 539H391C363.386 539 341 516.614 341 489V309Z"/>
</mask>
<path d="M341 309C341 281.386 363.386 259 391 259H530C557.614 259 580 281.386 580 309V489C580 516.614 557.614 539 530 539H391C363.386 539 341 516.614 341 489V309Z" fill="white"/>
<path d="M340 309C340 280.833 362.833 258 391 258H535C563.167 258 586 280.833 586 309H574C574 281.938 554.301 260 530 260H391C363.938 260 342 281.938 342 309H340ZM586 489C586 519.928 560.928 545 530 545H391C362.833 545 340 522.167 340 494L342 489C342 513.301 363.938 533 391 533H530C554.301 533 574 513.301 574 489H586ZM391 545C362.833 545 340 522.167 340 494V309C340 280.833 362.833 258 391 258V260C363.938 260 342 281.938 342 309V489C342 513.301 363.938 533 391 533V545ZM535 258C563.167 258 586 280.833 586 309V489C586 519.928 560.928 545 530 545V533C554.301 533 574 513.301 574 489V309C574 281.938 554.301 260 530 260L535 258Z" fill="#0B0A2F" mask="url(#path-9-inside-4_1_10)"/>
<defs>
<filter id="filter0_f_1_10" x="100.868" y="-60.0813" width="646.851" height="627.484" filterUnits="userSpaceOnUse" color-interpolation-filters="sRGB">
<feFlood flood-opacity="0" result="BackgroundImageFix"/>
<feBlend mode="normal" in="SourceGraphic" in2="BackgroundImageFix" result="shape"/>
<feGaussianBlur stdDeviation="75" result="effect1_foregroundBlur_1_10"/>
</filter>
<filter id="filter1_f_1_10" x="-19.132" y="189.919" width="646.851" height="627.484" filterUnits="userSpaceOnUse" color-interpolation-filters="sRGB">
<feFlood flood-opacity="0" result="BackgroundImageFix"/>
<feBlend mode="normal" in="SourceGraphic" in2="BackgroundImageFix" result="shape"/>
<feGaussianBlur stdDeviation="75" result="effect1_foregroundBlur_1_10"/>
</filter>
</defs>
</svg>
